<svg width="463" height="463" viewBox="0 0 463 463" fill="none" xmlns="http://www.w3.org/2000/svg">
<rect width="463" height="463" rx="50" fill="url(#paint0_linear_0_1)"/>
<rect width="463" height="463" rx="50" fill="url(#paint1_linear_0_1)"/>
<rect width="463" height="463" rx="50" fill="black" fill-opacity="0.2"/>
<path d="M431.815 72.8117L390.199 31.1967C387.269 28.2678 382.521 28.2678 379.592 31.1967L324.438 86.3507C322.018 88.7708 321.604 92.4317 323.183 95.2837L255.681 162.787C228.217 138.688 186.255 139.722 160.056 165.921C156.547 169.43 153.412 173.306 150.74 177.441C148.159 181.433 145.969 185.744 144.223 190.266C139.407 202.814 127.09 211.547 113.576 211.995C91.583 212.727 70.899 221.703 55.334 237.268C38.997 253.605 30 275.327 30 298.43C29.992 321.53 38.989 343.253 55.333 359.597L103.417 407.68C119.755 424.017 141.477 433.015 164.582 433.015C187.686 433.015 209.409 424.017 225.747 407.68C233.639 399.788 239.838 390.623 244.176 380.432C248.356 370.587 250.658 360.16 251.02 349.437C251.468 335.923 260.201 323.607 272.749 318.791C281.901 315.277 290.09 309.947 297.086 302.95C310.296 289.741 317.58 272.165 317.598 253.449C317.59 236.294 311.445 220.095 300.229 207.333L367.732 139.83C368.857 140.452 370.106 140.769 371.357 140.769C373.276 140.769 375.196 140.037 376.661 138.572L431.815 83.4177C434.743 80.4897 434.743 75.7397 431.815 72.8117ZM231.097 255.253C228.772 250.19 225.546 245.553 221.504 241.511C217.461 237.469 212.825 234.243 207.762 231.919L333.58 106.1L356.915 129.435L231.097 255.253ZM302.598 253.447C302.584 268.151 296.861 281.965 286.48 292.345C280.979 297.846 274.55 302.033 267.374 304.788C248.988 311.846 236.685 329.176 236.028 348.936C235.73 357.805 233.826 366.429 230.373 374.563C226.793 382.972 221.668 390.546 215.141 397.073C201.637 410.577 183.681 418.014 164.583 418.014C145.484 418.014 127.529 410.577 114.025 397.073L65.941 348.99C52.431 335.48 44.994 317.525 45.001 298.431C45.001 279.332 52.438 261.377 65.941 247.873C78.805 235.009 95.899 227.591 114.075 226.986C133.839 226.329 151.17 214.025 158.222 195.652C159.593 192.1 161.313 188.713 163.335 185.584C165.436 182.336 167.9 179.289 170.663 176.526C181.052 166.137 194.863 160.416 209.554 160.416C222.7 160.416 235.133 165.01 245.049 173.417L188.27 230.196C186.261 232.206 185.56 235.178 186.459 237.874C187.359 240.57 189.706 242.525 192.52 242.925C199.523 243.919 205.878 247.097 210.897 252.116C215.918 257.136 219.096 263.491 220.089 270.494C220.488 273.308 222.443 275.654 225.14 276.554C225.918 276.814 226.719 276.94 227.514 276.94C229.472 276.94 231.389 276.173 232.819 274.743L289.597 217.965C297.998 227.876 302.592 240.307 302.598 253.447ZM371.357 122.662L340.348 91.6537L384.896 47.1058L415.905 78.1147L371.357 122.662Z" fill="url(#paint2_linear_0_1)" fill-opacity="0.5"/>
<path d="M140.821 260.39C123.782 277.429 123.782 305.154 140.821 322.193C149.342 330.713 160.532 334.973 171.723 334.973C182.914 334.973 194.105 330.713 202.625 322.193C219.664 305.154 219.664 277.429 202.625 260.39C185.584 243.351 157.862 243.351 140.821 260.39ZM192.018 311.587C180.829 322.777 162.618 322.777 151.428 311.587C140.237 300.396 140.237 282.188 151.428 270.997C157.023 265.402 164.373 262.604 171.723 262.604C179.073 262.604 186.423 265.402 192.018 270.997C203.209 282.187 203.209 300.396 192.018 311.587Z" fill="url(#paint3_linear_0_1)" fill-opacity="0.5"/>
<path d="M103.771 318.939C100.841 316.01 96.093 316.01 93.164 318.939C90.235 321.868 90.235 326.617 93.164 329.545L133.47 369.85C134.935 371.314 136.855 372.047 138.774 372.047C140.693 372.047 142.613 371.315 144.078 369.85C147.007 366.921 147.007 362.172 144.078 359.244L103.771 318.939Z" fill="url(#paint4_linear_0_1)" fill-opacity="0.5"/>
<defs>
<linearGradient id="paint0_linear_0_1" x1="463" y1="122.5" x2="5.08166e-07" y2="-1.92066e-06" gradientUnits="userSpaceOnUse">
<stop stop-color="#001AFF"/>
<stop offset="1" stop-color="#248C34" stop-opacity="0"/>
</linearGradient>
<linearGradient id="paint1_linear_0_1" x1="120" y1="77" x2="32" y2="463" gradientUnits="userSpaceOnUse">
<stop offset="0.0314869" stop-color="#07F2BA" stop-opacity="0.52"/>
<stop offset="1" stop-color="#9D3DD9"/>
</linearGradient>
<linearGradient id="paint2_linear_0_1" x1="375.011" y1="101.015" x2="89" y2="361" gradientUnits="userSpaceOnUse">
<stop stop-color="#D96CFF"/>
<stop offset="1" stop-color="#FF7373"/>
</linearGradient>
<linearGradient id="paint3_linear_0_1" x1="202.646" y1="263.183" x2="140.801" y2="319.401" gradientUnits="userSpaceOnUse">
<stop stop-color="#D96CFF"/>
<stop offset="1" stop-color="#FF7373"/>
</linearGradient>
<linearGradient id="paint4_linear_0_1" x1="138.198" y1="326.6" x2="99.0462" y2="362.191" gradientUnits="userSpaceOnUse">
<stop stop-color="#D96CFF"/>
<stop offset="1" stop-color="#FF7373"/>
</linearGradient>
</defs>
</svg>
