<svg width="435" height="74" viewBox="0 0 435 74" fill="none" xmlns="http://www.w3.org/2000/svg">
<path d="M24.4707 2C44.6483 2 83 20.6667 83 38C83 55.3333 44.6483 74 24.4707 74C4.2931 74 0 55.3333 0 38C0 20.6667 4.15 2 24.4707 2Z" fill="url(#paint0_linear_0_1)" fill-opacity="0.53"/>
<path d="M111.064 70V3.952H132.28V70H111.064ZM172.281 18.16C180.601 18.16 187.321 19.952 192.441 23.536C197.625 27.056 200.217 32.464 200.217 39.76H181.689C181.689 34 178.553 31.12 172.281 31.12C166.009 31.12 162.873 34.736 162.873 41.968V47.44C162.873 54.608 166.137 58.192 172.665 58.192C179.193 58.192 182.457 55.248 182.457 49.36H200.217C200.217 56.72 197.625 62.192 192.441 65.776C187.321 69.36 180.601 71.152 172.281 71.152C163.385 71.152 156.409 68.912 151.353 64.432C146.297 59.952 143.769 53.36 143.769 44.656C143.769 35.952 146.297 29.36 151.353 24.88C156.409 20.4 163.385 18.16 172.281 18.16ZM227.614 24.592C229.662 22.544 232.062 20.976 234.814 19.888C237.566 18.736 240.446 18.16 243.454 18.16C249.342 18.16 253.758 19.792 256.702 23.056C259.646 26.32 261.118 31.024 261.118 37.168V70H242.014V39.472C242.014 37.296 241.438 35.568 240.286 34.288C239.198 32.944 237.63 32.272 235.582 32.272C233.214 32.272 231.294 33.04 229.822 34.576C228.35 36.112 227.614 38 227.614 40.24V70H208.51V0.399998H227.614V24.592ZM298.749 18.16C307.645 18.16 314.621 20.432 319.677 24.976C324.797 29.456 327.357 36.016 327.357 44.656C327.357 53.296 324.797 59.888 319.677 64.432C314.621 68.912 307.645 71.152 298.749 71.152C289.853 71.152 282.877 68.912 277.821 64.432C272.765 59.952 270.237 53.36 270.237 44.656C270.237 35.952 272.765 29.36 277.821 24.88C282.877 20.4 289.853 18.16 298.749 18.16ZM298.749 31.12C292.477 31.12 289.341 34.736 289.341 41.968V47.44C289.341 54.608 292.477 58.192 298.749 58.192C305.085 58.192 308.253 54.608 308.253 47.44V41.968C308.253 34.736 305.085 31.12 298.749 31.12ZM367.389 18.064C368.861 18.064 370.173 18.256 371.325 18.64C372.477 18.96 373.053 19.152 373.053 19.216V35.248H366.909C362.941 35.248 360.061 36.272 358.269 38.32C356.541 40.368 355.677 43.408 355.677 47.44V70H336.573V19.312H352.221L353.469 26.992C354.621 24.048 356.445 21.84 358.941 20.368C361.437 18.832 364.253 18.064 367.389 18.064ZM418.53 70L416.898 62.8C413.186 68.368 407.81 71.152 400.77 71.152C393.922 71.152 388.642 68.912 384.93 64.432C381.218 59.952 379.362 53.328 379.362 44.56C379.362 35.856 381.218 29.296 384.93 24.88C388.642 20.4 393.922 18.16 400.77 18.16C406.594 18.16 411.33 20.112 414.978 24.016V0.399998H434.082V70H418.53ZM406.722 32.272C401.218 32.272 398.466 35.568 398.466 42.16V47.248C398.466 53.776 401.218 57.04 406.722 57.04C409.538 57.04 411.65 56.048 413.058 54.064C414.466 52.08 415.17 49.488 415.17 46.288V43.12C415.17 39.92 414.466 37.328 413.058 35.344C411.65 33.296 409.538 32.272 406.722 32.272Z" fill="#414141"/>
<defs>
<linearGradient id="paint0_linear_0_1" x1="0" y1="38" x2="83" y2="38" gradientUnits="userSpaceOnUse">
<stop stop-color="#07F2BA"/>
<stop offset="1" stop-color="#001AFF"/>
</linearGradient>
</defs>
</svg>
