<?xml version="1.0" encoding="iso-8859-1"?>
<!-- Generator: Adobe Illustrator 19.0.0, SVG Export Plug-In . SVG Version: 6.00 Build 0)  -->
<svg version="1.1" id="Layer_1" xmlns="http://www.w3.org/2000/svg" xmlns:xlink="http://www.w3.org/1999/xlink" x="0px" y="0px"
	 viewBox="0 0 492.8 492.8" style="enable-background:new 0 0 492.8 492.8;" xml:space="preserve">
<path style="fill:#30C3FC;" d="M462.4,136c0,112.8-112,327.2-216,327.2S30.4,248.8,30.4,136s112-136,216-136S462.4,23.2,462.4,136z"
	/>
<path style="fill:#0F7ABC;" d="M462.4,165.6c0,112.8-112,327.2-216,327.2s-216-214.4-216-327.2s112-136.8,216-136.8
	S462.4,52.8,462.4,165.6z"/>
<path style="fill:#199EE0;" d="M462.4,148c0,112.8-112,327.2-216,327.2S30.4,260.8,30.4,148s112-136.8,216-136.8
	S462.4,34.4,462.4,148z"/>
<path style="fill:#1687D3;" d="M246.4,11.2c104,0,216,23.2,216,136.8s-112,327.2-216,327.2"/>
<circle style="fill:#FFB81A;" cx="246.4" cy="210.4" r="120"/>
<g>
	<path style="fill:#FF8C1A;" d="M246.4,90.4c66.4,0,120,53.6,120,120s-53.6,120-120,120"/>
	<circle style="fill:#FF8C1A;" cx="246.4" cy="210.4" r="56"/>
</g>
<path style="fill:#FFB81A;" d="M246.4,154.4c31.2,0,56,24.8,56,56s-24.8,56-56,56"/>
<g>
</g>
<g>
</g>
<g>
</g>
<g>
</g>
<g>
</g>
<g>
</g>
<g>
</g>
<g>
</g>
<g>
</g>
<g>
</g>
<g>
</g>
<g>
</g>
<g>
</g>
<g>
</g>
<g>
</g>
</svg>
