<svg width="628" height="187" viewBox="0 0 628 187" fill="none" xmlns="http://www.w3.org/2000/svg">
<path fill-rule="evenodd" clip-rule="evenodd" d="M43.4025 144.5C48.5837 149.091 55.1294 154.31 62.3389 154.9C78.9888 156.264 105.356 93.8313 104.747 62.7993C104.545 52.8978 101.889 42.4616 92.9099 37.0038C84.1147 31.6382 72.9779 31.8964 63.0764 32.2283C44.4166 32.8552 20.5572 36.2479 7.07867 50.5561C0.27486 57.784 -0.960521 67.3721 0.606752 76.6282C1.12303 79.689 1.93433 82.6945 2.96688 85.5709C5.7071 93.2457 9.67877 100.759 14.1177 107.912L32.7497 90.005L34.3887 85.546C35.2837 83.0978 36.0957 80.3865 36.1447 79.532C36.2447 78.6837 36.5387 77.7573 36.8097 77.4863C38.5197 75.7183 37.8907 74.276 36.0757 75.8036C35.1367 76.627 34.7157 76.7028 33.8117 76.3409C32.8057 75.9667 32.6327 75.7941 32.0507 74.5346C31.2817 72.7718 31.3887 71.3421 32.4807 69.9046C33.9837 67.8839 36.9867 67.8152 38.9427 69.7716C39.7777 70.6059 39.8637 71.3249 39.2417 72.4647C39.0177 72.9186 39.0057 73.4486 39.2357 73.6788C39.6967 74.1391 41.2227 72.7284 45.8297 67.4879C48.4867 64.5433 48.6937 64.1633 48.2047 63.6742C47.7737 63.2427 47.5067 63.3371 46.7157 64.1276C45.4287 65.4151 44.1447 65.2605 42.9667 63.6763C41.6107 61.8681 41.6897 59.3723 43.1347 57.9267C45.8007 55.2614 51.1277 57.4717 49.6867 60.6387C49.3917 61.337 49.2147 61.9737 49.3017 62.0601C50.0717 62.7855 50.6267 62.3461 54.9037 57.7238L54.9397 57.6852C59.3167 52.9657 59.3597 52.9189 58.7957 52.2201C58.2597 51.5481 58.1117 51.5809 57.2537 52.4393C55.6047 54.0881 53.6647 53.3232 52.6597 50.6462C51.4197 47.283 54.8197 43.9976 58.1447 45.3341C60.1867 46.1114 60.8797 47.6626 59.9947 49.3529C59.6577 49.9197 59.7357 50.3593 60.1387 50.7621C60.7427 51.3663 60.8107 51.2985 65.3777 46.5592C69.7127 41.9944 70.0347 41.7296 71.0557 41.8019C71.6657 41.8247 72.6887 42.125 73.3077 42.4272C75.0537 43.2701 94.5307 62.7474 95.4597 64.5801C96.7267 67.1113 96.4577 67.6104 91.2217 72.674C86.7017 76.9635 86.5497 77.1729 87.0677 77.6908C87.4707 78.0936 87.9777 78.104 88.8917 77.7079C90.4527 77.0101 91.6727 77.6885 92.4727 79.7081C93.8097 83.0323 91.0397 86.0899 87.4177 85.2237C84.7617 84.6002 83.7537 82.3279 85.4027 80.679C86.2837 79.7981 86.3167 79.6502 85.6547 78.9885L84.9357 78.2692L81.6027 81.4869L81.5617 81.5264C76.0779 86.8154 75.311 87.555 75.4517 88.0185C75.4742 88.0927 75.5204 88.1598 75.5739 88.2375L75.5847 88.2531C75.8847 88.6435 76.2607 88.6128 76.9697 88.192C78.7377 87.1142 80.5107 88.3906 80.9867 91.0797C81.7007 94.9111 77.4367 97.3334 74.2397 94.9492C72.6267 93.7428 72.4497 92.4815 73.7597 91.1714C74.5507 90.3808 74.6447 90.1138 74.2127 89.6823C73.7237 89.1932 73.3667 89.3779 71.0767 91.3799C69.6517 92.5749 67.4197 94.6343 66.1327 95.9218C64.2127 97.8417 63.8917 98.3346 64.2377 98.6799C64.4677 98.91 64.8497 98.9307 65.0757 98.7048C65.7757 98.0046 67.3097 98.1388 68.1737 99.0019C69.7267 100.555 69.8087 103.754 68.2947 105.267C66.8947 106.668 63.4847 106.51 61.9307 104.957C61.0677 104.094 61.0717 102.651 61.9607 101.417C63.0397 99.877 62.2527 99.2255 60.9427 100.536C60.3337 101.145 59.5667 101.509 58.8607 101.525C58.2507 101.502 55.5387 102.315 52.7947 103.275L47.8247 105.081L35.6607 117.763C33.8397 119.678 30.8737 122.777 27.1127 126.697C25.9906 125.235 24.8928 123.756 23.8158 122.266C29.6 130.271 36.0009 137.955 43.4025 144.5ZM23.5096 121.841C23.4165 121.711 23.3236 121.582 23.2308 121.452C21.9337 119.641 20.634 117.793 19.3476 115.912C20.634 117.793 21.9335 119.641 23.2307 121.452C23.3235 121.582 23.4165 121.711 23.5096 121.841Z" fill="#24387B"/>
<path d="M146.031 46.9091V140H120.758V46.9091H146.031ZM244.917 81.8182H219.281C219.099 79.697 218.614 77.7727 217.826 76.0455C217.069 74.3182 216.008 72.8333 214.644 71.5909C213.311 70.3182 211.69 69.3485 209.781 68.6818C207.872 67.9848 205.705 67.6364 203.281 67.6364C199.038 67.6364 195.447 68.6667 192.508 70.7273C189.599 72.7879 187.387 75.7424 185.872 79.5909C184.387 83.4394 183.644 88.0606 183.644 93.4545C183.644 99.1515 184.402 103.924 185.917 107.773C187.462 111.591 189.69 114.47 192.599 116.409C195.508 118.318 199.008 119.273 203.099 119.273C205.432 119.273 207.523 118.985 209.372 118.409C211.22 117.803 212.826 116.939 214.19 115.818C215.553 114.697 216.659 113.348 217.508 111.773C218.387 110.167 218.978 108.364 219.281 106.364L244.917 106.545C244.614 110.485 243.508 114.5 241.599 118.591C239.69 122.652 236.978 126.409 233.462 129.864C229.978 133.288 225.659 136.045 220.508 138.136C215.356 140.227 209.372 141.273 202.553 141.273C194.008 141.273 186.341 139.439 179.553 135.773C172.796 132.106 167.447 126.712 163.508 119.591C159.599 112.47 157.644 103.758 157.644 93.4545C157.644 83.0909 159.644 74.3636 163.644 67.2727C167.644 60.1515 173.038 54.7727 179.826 51.1364C186.614 47.4697 194.19 45.6364 202.553 45.6364C208.432 45.6364 213.841 46.4394 218.781 48.0454C223.72 49.6515 228.053 52 231.781 55.0909C235.508 58.1515 238.508 61.9242 240.781 66.4091C243.053 70.8939 244.432 76.0303 244.917 81.8182ZM256.383 140V46.9091H281.656V83.2727H315.11V46.9091H340.383V140H315.11V103.636H281.656V140H256.383ZM442.565 93.4545C442.565 103.818 440.55 112.561 436.519 119.682C432.489 126.773 427.05 132.152 420.201 135.818C413.353 139.455 405.716 141.273 397.292 141.273C388.807 141.273 381.14 139.439 374.292 135.773C367.474 132.076 362.05 126.682 358.019 119.591C354.019 112.47 352.019 103.758 352.019 93.4545C352.019 83.0909 354.019 74.3636 358.019 67.2727C362.05 60.1515 367.474 54.7727 374.292 51.1364C381.14 47.4697 388.807 45.6364 397.292 45.6364C405.716 45.6364 413.353 47.4697 420.201 51.1364C427.05 54.7727 432.489 60.1515 436.519 67.2727C440.55 74.3636 442.565 83.0909 442.565 93.4545ZM416.565 93.4545C416.565 87.8788 415.822 83.1818 414.337 79.3636C412.883 75.5151 410.716 72.6061 407.837 70.6364C404.989 68.6364 401.474 67.6364 397.292 67.6364C393.11 67.6364 389.58 68.6364 386.701 70.6364C383.853 72.6061 381.686 75.5151 380.201 79.3636C378.747 83.1818 378.019 87.8788 378.019 93.4545C378.019 99.0303 378.747 103.742 380.201 107.591C381.686 111.409 383.853 114.318 386.701 116.318C389.58 118.288 393.11 119.273 397.292 119.273C401.474 119.273 404.989 118.288 407.837 116.318C410.716 114.318 412.883 111.409 414.337 107.591C415.822 103.742 416.565 99.0303 416.565 93.4545ZM454.258 140V46.9091H494.44C501.349 46.9091 507.394 48.1667 512.576 50.6818C517.758 53.197 521.788 56.8182 524.667 61.5455C527.546 66.2727 528.985 71.9394 528.985 78.5455C528.985 85.2121 527.5 90.8333 524.531 95.4091C521.591 99.9848 517.455 103.439 512.122 105.773C506.819 108.106 500.622 109.273 493.531 109.273H469.531V89.6364H488.44C491.409 89.6364 493.94 89.2727 496.031 88.5455C498.152 87.7879 499.773 86.5909 500.894 84.9545C502.046 83.3182 502.622 81.1818 502.622 78.5455C502.622 75.8788 502.046 73.7121 500.894 72.0455C499.773 70.3485 498.152 69.1061 496.031 68.3182C493.94 67.5 491.409 67.0909 488.44 67.0909H479.531V140H454.258ZM508.803 97.2727L532.076 140H504.622L481.894 97.2727H508.803ZM575.576 140H539.758V46.9091H575.212C584.788 46.9091 593.061 48.7727 600.031 52.5C607.031 56.197 612.425 61.5303 616.212 68.5C620.031 75.4394 621.94 83.7576 621.94 93.4545C621.94 103.152 620.046 111.485 616.258 118.455C612.47 125.394 607.106 130.727 600.167 134.455C593.228 138.152 585.031 140 575.576 140ZM565.031 118.545H574.667C579.273 118.545 583.197 117.803 586.44 116.318C589.712 114.833 592.197 112.273 593.894 108.636C595.622 105 596.485 99.9394 596.485 93.4545C596.485 86.9697 595.606 81.9091 593.849 78.2727C592.122 74.6364 589.576 72.0758 586.212 70.5909C582.879 69.1061 578.788 68.3636 573.94 68.3636H565.031V118.545Z" fill="#CAD7FF"/>
</svg>
