<svg width="256" height="256" viewBox="0 0 256 256" fill="none" xmlns="http://www.w3.org/2000/svg">
<path fill-rule="evenodd" clip-rule="evenodd" d="M110.863 225.633C120.755 234.398 133.251 244.361 147.015 245.487C178.803 248.092 229.142 128.898 227.98 69.6524C227.593 50.7489 222.524 30.8245 205.381 20.4047C188.589 10.1608 167.327 10.6537 148.424 11.2873C112.799 12.4842 67.2473 18.9614 41.5145 46.2782C28.5249 60.0775 26.1664 78.3826 29.1586 96.054C30.1442 101.898 31.6931 107.636 33.6645 113.127C42.3242 137.381 57.4259 160.791 72.3516 181.63C83.6867 197.471 96.2539 212.714 110.863 225.633ZM96.082 174.585C92.6055 178.241 86.9429 184.158 79.7625 191.643C77.2309 188.343 74.7643 185 72.3512 181.629C66.4423 173.379 60.5067 164.726 54.9529 155.778L90.5245 121.591L93.6536 113.078C95.3623 108.404 96.9126 103.228 97.0061 101.597C97.197 99.977 97.7583 98.2083 98.2757 97.691C101.54 94.3156 100.34 91.562 96.8744 94.4784C95.0817 96.0504 94.2779 96.1951 92.552 95.5042C90.6314 94.7898 90.3011 94.4603 89.19 92.0557C87.7218 88.6902 87.9261 85.9607 90.0109 83.2163C92.8804 79.3584 98.6136 79.2272 102.348 82.9623C103.942 84.5552 104.106 85.9278 102.919 88.1039C102.491 88.9705 102.468 89.9823 102.907 90.4218C103.787 91.3006 106.701 88.6074 115.496 78.6024C120.569 72.9807 120.964 72.2552 120.031 71.3214C119.208 70.4976 118.698 70.6778 117.188 72.187C114.731 74.6451 112.279 74.3499 110.03 71.3254C107.442 67.8733 107.592 63.1084 110.351 60.3485C115.441 55.26 125.611 59.4798 122.86 65.5261C122.297 66.8593 121.959 68.0749 122.125 68.2398C123.595 69.6247 124.655 68.7858 132.82 59.9611L132.889 59.8874C141.245 50.8771 141.327 50.7878 140.251 49.4537C139.227 48.1707 138.945 48.2333 137.307 49.8721C134.158 53.02 130.455 51.5597 128.536 46.4488C126.169 40.0279 132.66 33.7556 139.008 36.3072C142.906 37.7911 144.229 40.7526 142.54 43.9797C141.896 45.0618 142.045 45.9011 142.815 46.6701C143.968 47.8236 144.098 47.6942 152.817 38.6461C161.093 29.9311 161.708 29.4256 163.657 29.5636C164.822 29.6071 166.775 30.1805 167.956 30.7574C171.29 32.3666 208.475 69.552 210.248 73.0509C212.667 77.8834 212.154 78.8363 202.157 88.5035C193.528 96.6928 193.238 97.0926 194.226 98.0814C194.996 98.8504 195.964 98.8702 197.709 98.114C200.689 96.7818 203.018 98.077 204.546 101.933C207.098 108.279 201.81 114.117 194.895 112.463C189.824 111.273 187.9 106.934 191.048 103.786C192.73 102.105 192.793 101.822 191.529 100.559L190.156 99.1856L183.793 105.329L183.714 105.405C173.245 115.502 171.781 116.914 172.05 117.799C172.093 117.94 172.181 118.068 172.283 118.217L172.304 118.247C172.876 118.992 173.594 118.933 174.948 118.13C178.323 116.072 181.708 118.509 182.617 123.643C183.98 130.958 175.839 135.582 169.736 131.03C166.656 128.727 166.318 126.319 168.819 123.818C170.329 122.309 170.509 121.799 169.684 120.975C168.751 120.041 168.069 120.394 163.697 124.216C160.976 126.498 156.715 130.429 154.258 132.887C150.593 136.553 149.98 137.494 150.64 138.153C151.079 138.592 151.809 138.632 152.24 138.201C153.577 136.864 156.505 137.12 158.155 138.768C161.12 141.734 161.276 147.84 158.386 150.729C155.713 153.403 149.203 153.102 146.236 150.136C144.588 148.488 144.596 145.735 146.293 143.379C148.353 140.438 146.851 139.195 144.35 141.696C143.187 142.86 141.723 143.554 140.375 143.585C139.21 143.541 134.032 145.092 128.794 146.925L119.305 150.373L96.082 174.585Z" fill="#24387B"/>
</svg>
