<svg width="502" height="97" viewBox="0 0 502 97" fill="none" xmlns="http://www.w3.org/2000/svg">
<path d="M25.2727 1.90909V95H0V1.90909H25.2727ZM124.159 36.8182H98.5227C98.3409 34.697 97.8561 32.7727 97.0682 31.0455C96.3106 29.3182 95.25 27.8333 93.8864 26.5909C92.553 25.3182 90.9318 24.3485 89.0227 23.6818C87.1136 22.9848 84.947 22.6364 82.5227 22.6364C78.2803 22.6364 74.6894 23.6667 71.75 25.7273C68.8409 27.7879 66.6288 30.7424 65.1136 34.5909C63.6288 38.4394 62.8864 43.0606 62.8864 48.4545C62.8864 54.1515 63.6439 58.9242 65.1591 62.7727C66.7045 66.5909 68.9318 69.4697 71.8409 71.4091C74.75 73.3182 78.25 74.2727 82.3409 74.2727C84.6742 74.2727 86.7652 73.9848 88.6136 73.4091C90.4621 72.803 92.0682 71.9394 93.4318 70.8182C94.7955 69.697 95.9015 68.3485 96.75 66.7727C97.6288 65.1667 98.2197 63.3636 98.5227 61.3636L124.159 61.5455C123.856 65.4848 122.75 69.5 120.841 73.5909C118.932 77.6515 116.22 81.4091 112.705 84.8636C109.22 88.2879 104.902 91.0455 99.75 93.1364C94.5985 95.2273 88.6136 96.2727 81.7955 96.2727C73.25 96.2727 65.5833 94.4394 58.7955 90.7727C52.0379 87.1061 46.6894 81.7121 42.75 74.5909C38.8409 67.4697 36.8864 58.7576 36.8864 48.4545C36.8864 38.0909 38.8864 29.3636 42.8864 22.2727C46.8864 15.1515 52.2803 9.77272 59.0682 6.13636C65.8561 2.46969 73.4318 0.63636 81.7955 0.63636C87.6742 0.63636 93.0833 1.43939 98.0227 3.04545C102.962 4.65151 107.295 7 111.023 10.0909C114.75 13.1515 117.75 16.9242 120.023 21.4091C122.295 25.8939 123.674 31.0303 124.159 36.8182ZM135.625 95V1.90909H160.898V38.2727H194.352V1.90909H219.625V95H194.352V58.6364H160.898V95H135.625ZM321.807 48.4545C321.807 58.8182 319.792 67.5606 315.761 74.6818C311.731 81.7727 306.292 87.1515 299.443 90.8182C292.595 94.4545 284.958 96.2727 276.534 96.2727C268.049 96.2727 260.383 94.4394 253.534 90.7727C246.716 87.0758 241.292 81.6818 237.261 74.5909C233.261 67.4697 231.261 58.7576 231.261 48.4545C231.261 38.0909 233.261 29.3636 237.261 22.2727C241.292 15.1515 246.716 9.77272 253.534 6.13636C260.383 2.46969 268.049 0.63636 276.534 0.63636C284.958 0.63636 292.595 2.46969 299.443 6.13636C306.292 9.77272 311.731 15.1515 315.761 22.2727C319.792 29.3636 321.807 38.0909 321.807 48.4545ZM295.807 48.4545C295.807 42.8788 295.064 38.1818 293.58 34.3636C292.125 30.5151 289.958 27.6061 287.08 25.6364C284.231 23.6364 280.716 22.6364 276.534 22.6364C272.352 22.6364 268.822 23.6364 265.943 25.6364C263.095 27.6061 260.928 30.5151 259.443 34.3636C257.989 38.1818 257.261 42.8788 257.261 48.4545C257.261 54.0303 257.989 58.7424 259.443 62.5909C260.928 66.4091 263.095 69.3182 265.943 71.3182C268.822 73.2879 272.352 74.2727 276.534 74.2727C280.716 74.2727 284.231 73.2879 287.08 71.3182C289.958 69.3182 292.125 66.4091 293.58 62.5909C295.064 58.7424 295.807 54.0303 295.807 48.4545ZM333.5 95V1.90909H373.682C380.591 1.90909 386.636 3.16666 391.818 5.68182C397 8.19697 401.03 11.8182 403.909 16.5455C406.788 21.2727 408.227 26.9394 408.227 33.5455C408.227 40.2121 406.742 45.8333 403.773 50.4091C400.833 54.9848 396.697 58.4394 391.364 60.7727C386.061 63.1061 379.864 64.2727 372.773 64.2727H348.773V44.6364H367.682C370.652 44.6364 373.182 44.2727 375.273 43.5455C377.394 42.7879 379.015 41.5909 380.136 39.9545C381.288 38.3182 381.864 36.1818 381.864 33.5455C381.864 30.8788 381.288 28.7121 380.136 27.0455C379.015 25.3485 377.394 24.1061 375.273 23.3182C373.182 22.5 370.652 22.0909 367.682 22.0909H358.773V95H333.5ZM388.045 52.2727L411.318 95H383.864L361.136 52.2727H388.045ZM454.818 95H419V1.90909H454.455C464.03 1.90909 472.303 3.77273 479.273 7.5C486.273 11.197 491.667 16.5303 495.455 23.5C499.273 30.4394 501.182 38.7576 501.182 48.4545C501.182 58.1515 499.288 66.4848 495.5 73.4545C491.712 80.3939 486.348 85.7273 479.409 89.4545C472.47 93.1515 464.273 95 454.818 95ZM444.273 73.5455H453.909C458.515 73.5455 462.439 72.803 465.682 71.3182C468.955 69.8333 471.439 67.2727 473.136 63.6364C474.864 60 475.727 54.9394 475.727 48.4545C475.727 41.9697 474.848 36.9091 473.091 33.2727C471.364 29.6364 468.818 27.0758 465.455 25.5909C462.121 24.1061 458.03 23.3636 453.182 23.3636H444.273V73.5455Z" fill="#CAD7FF"/>
</svg>
